<svg width="59" height="47" viewBox="0 0 59 47" fill="none" xmlns="http://www.w3.org/2000/svg">
<path d="M0.879688 46.6V31.4C0.879688 25.6667 1.81302 20.3333 3.67969 15.4C5.67969 10.3333 9.07969 5.39999 13.8797 0.599998L22.0797 7.2C18.3464 11.0667 15.813 14.6667 14.4797 18C13.1464 21.2 12.4797 24.6 12.4797 28.2L7.47969 24.4H23.0797V46.6H0.879688ZM35.8797 46.6V31.4C35.8797 25.6667 36.813 20.3333 38.6797 15.4C40.6797 10.3333 44.0797 5.39999 48.8797 0.599998L57.0797 7.2C53.3464 11.0667 50.813 14.6667 49.4797 18C48.1464 21.2 47.4797 24.6 47.4797 28.2L42.4797 24.4H58.0797V46.6H35.8797Z" fill="#000103" fill-opacity="0.6"/>
</svg>
